<svg width="72" height="65" viewBox="0 0 72 65" fill="none" xmlns="http://www.w3.org/2000/svg">
<g id="&#240;&#159;&#166;&#134; emoji &#34;delivery truck&#34;">
<path id="Vector" d="M59.0172 11.3642C58.127 9.04203 55.5009 7.87526 53.1832 8.7638L8.8388 25.7646C6.51661 26.6549 5.34984 29.281 6.23838 31.5986L11.0022 49.6939L65.6761 28.733L59.0172 11.3642Z" fill="url(#paint0_linear_290_1078)"/>
<path id="Vector_2" d="M11.0024 49.6938L12.9572 54.7927C13.8475 57.1149 16.4736 58.2816 18.7913 57.3931L65.0262 39.6675C67.3483 38.7773 68.5151 36.1512 67.6266 33.8335L65.6718 28.7347L11.0024 49.6938Z" fill="#66BB6A"/>
<path id="Vector_3" opacity="0.2" d="M9.85227 26.9398L54.2474 10.1801C55.8153 9.57905 57.1117 10.1871 57.7023 11.7276L64.2264 29.2888L66.1063 34.1922C66.7753 35.9372 65.7544 37.7881 64.9455 38.0982L18.7298 55.8738C15.9804 56.9278 14.7485 55.4142 14.1945 53.9691L12.3607 49.1314L7.60133 31.1021L7.593 31.0532C6.86389 28.6484 8.42078 27.4886 9.85227 26.9398ZM9.33414 25.5747C6.78018 26.5538 5.33482 28.63 6.19415 31.4696L10.9723 49.5751L12.8385 54.4837C13.7288 56.8059 15.8623 58.5368 19.2706 57.2301L65.4636 39.4633C67.0905 38.8396 68.4007 36.1116 67.4651 33.6713L65.5852 28.7678L59.0646 11.2158C58.1743 8.89357 56.0152 7.93871 53.6975 8.82726L9.33414 25.5747Z" fill="#424242"/>
<path id="Vector_4" d="M20.0109 37.8169L13.3806 40.3588C12.6308 40.6463 11.8572 40.26 11.6585 39.497L9.75158 32.1437C9.55288 31.3807 10.0018 30.5258 10.7561 30.2366L16.6321 27.9839C17.3819 27.6964 18.1555 28.0826 18.3542 28.8457L21.0109 35.9115C21.2114 36.679 20.7608 37.5294 20.0109 37.8169Z" fill="#546E7A"/>
<path id="Vector_5" d="M65.7018 28.8012L25.6246 44.1661L15.2931 17.2177C14.9081 16.2134 15.4096 15.088 16.414 14.703L52.8556 0.731973C53.86 0.346937 54.9853 0.848526 55.3703 1.85284L65.7018 28.8012Z" fill="url(#paint1_linear_290_1078)"/>
<path id="Vector_6" opacity="0.2" d="M16.9825 28.8971C17.0916 28.8553 17.1901 28.854 17.2691 28.8967C17.34 28.9321 17.386 28.9978 17.4118 29.0922C17.4194 29.1258 17.4316 29.1576 17.4438 29.1894L20.0779 36.1961C20.1272 36.4743 19.9354 36.8033 19.6582 36.9095L13.0324 39.4497C12.9234 39.4915 12.8248 39.4928 12.7459 39.4501C12.675 39.4148 12.629 39.349 12.6032 39.2546L10.6963 31.9014C10.6235 31.6165 10.8203 31.2596 11.1066 31.1498L16.9825 28.8971ZM16.6341 27.9882L10.7581 30.241C10.0083 30.5284 9.55944 31.3833 9.75359 32.1481L11.6605 39.5014C11.8592 40.2644 12.6283 40.6524 13.3826 40.3632L20.0129 37.8212C20.7628 37.5338 21.2116 36.6789 21.0175 35.9141L18.3607 28.8483C18.1575 28.087 17.3885 27.699 16.6341 27.9882Z" fill="#424242"/>
<path id="Vector_7" d="M32.9243 8.37329L38.055 6.4063L42.1754 17.1538L37.0447 19.1208L32.9243 8.37329Z" fill="#6D4C41"/>
<path id="Vector_8" d="M39.9785 26.7737L45.1092 24.8067L49.0832 35.1725L43.9526 37.1395L39.9785 26.7737Z" fill="#6D4C41"/>
<path id="Vector_9" opacity="0.2" d="M53.3783 2.0953C53.6282 1.99947 53.9111 2.12557 54.007 2.37551L63.8158 27.9606L26.4652 42.2801L16.6564 16.695C16.5606 16.4451 16.6867 16.1622 16.9366 16.0663L53.3783 2.0953ZM52.8556 0.731973L16.414 14.703C15.4096 15.088 14.9081 16.2134 15.2931 17.2177L25.6246 44.1661L65.7018 28.8012L55.3703 1.85284C54.9853 0.848526 53.86 0.346937 52.8556 0.731973Z" fill="#424242"/>
<path id="Vector_10" d="M28.5344 59.9122C32.0481 58.5651 33.8045 54.6246 32.4574 51.1109C31.1104 47.5971 27.1699 45.8407 23.6561 47.1878C20.1424 48.5349 18.386 52.4754 19.7331 55.9891C21.0802 59.5029 25.0207 61.2593 28.5344 59.9122Z" fill="#4E342E"/>
<path id="Vector_11" opacity="0.2" d="M24.0046 48.0967C27.013 46.9433 30.3952 48.4509 31.5486 51.4593C32.7019 54.4677 31.1944 57.8499 28.186 59.0033C25.1776 60.1567 21.7953 58.6491 20.642 55.6407C19.4886 52.6323 20.9962 49.2501 24.0046 48.0967ZM23.6561 47.1878C20.1433 48.5346 18.3863 52.4763 19.7331 55.9891C21.0798 59.502 25.0216 61.2589 28.5344 59.9122C32.0472 58.5654 33.8042 54.6237 32.4574 51.1109C31.1107 47.598 27.169 45.8411 23.6561 47.1878Z" fill="#EEEEEE"/>
<path id="Vector_12" d="M27.1406 56.2769C28.6465 55.6995 29.3992 54.0107 28.8219 52.5049C28.2446 50.999 26.5558 50.2462 25.0499 50.8236C23.544 51.4009 22.7913 53.0897 23.3686 54.5955C23.9459 56.1014 25.6347 56.8542 27.1406 56.2769Z" fill="#BDBDBD"/>
<path id="Vector_13" d="M61.2541 47.3682C64.7679 46.0211 66.5243 42.0807 65.1772 38.5669C63.8301 35.0532 59.8896 33.2968 56.3759 34.6439C52.8621 35.991 51.1057 39.9315 52.4528 43.4452C53.7999 46.9589 57.7404 48.7153 61.2541 47.3682Z" fill="#4E342E"/>
<path id="Vector_14" opacity="0.2" d="M56.7243 35.5528C59.7327 34.3994 63.1149 35.907 64.2683 38.9154C65.4217 41.9238 63.9141 45.306 60.9057 46.4594C57.8973 47.6127 54.5151 46.1051 53.3617 43.0967C52.2083 40.0883 53.7159 36.7061 56.7243 35.5528ZM56.3759 34.6439C52.863 35.9906 51.1061 39.9324 52.4528 43.4452C53.7996 46.958 57.7413 48.715 61.2541 47.3682C64.767 46.0215 66.5239 42.0797 65.1772 38.5669C63.8304 35.0541 59.8887 33.2971 56.3759 34.6439Z" fill="#EEEEEE"/>
<path id="Vector_15" d="M59.8603 43.7329C61.3662 43.1556 62.1189 41.4668 61.5416 39.9609C60.9643 38.455 59.2755 37.7023 57.7696 38.2796C56.2637 38.8569 55.511 40.5457 56.0883 42.0516C56.6656 43.5575 58.3544 44.3102 59.8603 43.7329Z" fill="#BDBDBD"/>
</g>
<defs>
<linearGradient id="paint0_linear_290_1078" x1="29.1942" y1="15.3546" x2="40.0414" y2="43.6481" gradientUnits="userSpaceOnUse">
<stop offset="0.0074201" stop-color="#FFF8E1"/>
<stop offset="0.1774" stop-color="#FFF6DA"/>
<stop offset="0.4164" stop-color="#FFF2C8"/>
<stop offset="0.6962" stop-color="#FFEAAA"/>
<stop offset="0.9948" stop-color="#FFE082"/>
</linearGradient>
<linearGradient id="paint1_linear_290_1078" x1="34.807" y1="8.16386" x2="45.4348" y2="35.8853" gradientUnits="userSpaceOnUse">
<stop offset="0.0048889" stop-color="#BCAAA4"/>
<stop offset="0.3916" stop-color="#AC958E"/>
<stop offset="0.9986" stop-color="#8D6E63"/>
</linearGradient>
</defs>
</svg>
