<svg width="69" height="45" viewBox="0 0 69 45" fill="none" xmlns="http://www.w3.org/2000/svg">
<g id="&#240;&#159;&#166;&#134; emoji &#34;sport utility vehicle&#34;">
<path id="Vector" d="M66.6146 28.4433H65.1356C64.2254 28.4433 63.4858 27.7038 63.4858 26.7936V17.4642C63.4858 16.554 64.2254 15.8145 65.1356 15.8145H66.6146C67.5248 15.8145 68.2643 16.554 68.2643 17.4642V26.7936C68.2643 27.7038 67.5248 28.4433 66.6146 28.4433Z" fill="#333333"/>
<path id="Vector_2" d="M62.6323 2.95811C62.6323 1.30839 61.3239 0 59.6742 0H31.1739C29.1829 0 27.8745 1.42217 26.623 2.90122C23.1529 7.05396 15.4732 15.4163 14.9043 16.1558C14.7905 16.2696 8.30542 17.1229 4.66467 17.6349C3.18561 17.8056 2.04787 19.0002 1.9341 20.4792L1.64967 34.0183C1.19457 36.8057 2.7874 38.0004 5.34731 38.0004H59.4466L65.5904 35.0423C65.5335 35.0423 62.6323 2.95811 62.6323 2.95811Z" fill="url(#paint0_linear_290_1094)"/>
<path id="Vector_3" d="M42.1529 17.0659H23.0389C22.1288 17.0659 21.6168 15.9851 22.1856 15.2455L32.0839 3.46999C32.3115 3.24244 32.5959 3.07178 32.9372 3.07178H42.1529C42.9493 3.07178 43.5751 3.69753 43.5751 4.49395V15.6438C43.5751 16.4402 42.9493 17.0659 42.1529 17.0659Z" fill="#B7E6FC"/>
<path id="Vector_4" d="M58.9914 17.0659H48.126C47.3296 17.0659 46.647 16.3833 46.647 15.5869V4.55083C46.647 3.69753 47.3296 3.07178 48.126 3.07178H57.7968C58.5932 3.07178 59.2758 3.75442 59.2758 4.55083L60.4705 15.5869C60.4705 16.3833 59.7878 17.0659 58.9914 17.0659Z" fill="#B7E6FC"/>
<path id="Vector_5" d="M0.853302 37.7729H65.5336C66.0455 37.4885 66.3869 36.9196 66.3869 36.2938V33.8477C66.3869 32.8806 65.5904 32.0842 64.6234 32.0842H62.4048C60.812 28.1021 56.9437 25.3147 52.4496 25.3147C47.9555 25.3147 44.0872 28.1021 42.4944 32.0842H24.5182C22.9254 28.1021 19.114 25.3147 14.563 25.3147C10.0121 25.3147 6.20066 28.1021 4.60783 32.0842H1.76349C0.796415 32.0842 0 32.8806 0 33.8477V36.2938C0 36.9196 0.341321 37.4885 0.853302 37.7729Z" fill="#546E7A"/>
<path id="Vector_6" d="M14.5631 44.7699C19.37 44.7699 23.2667 40.8731 23.2667 36.0662C23.2667 31.2593 19.37 27.3625 14.5631 27.3625C9.75614 27.3625 5.85938 31.2593 5.85938 36.0662C5.85938 40.8731 9.75614 44.7699 14.5631 44.7699Z" fill="#3E2723"/>
<path id="Vector_7" d="M14.5629 39.5364C16.4793 39.5364 18.033 37.9828 18.033 36.0663C18.033 34.1498 16.4793 32.5962 14.5629 32.5962C12.6464 32.5962 11.0928 34.1498 11.0928 36.0663C11.0928 37.9828 12.6464 39.5364 14.5629 39.5364Z" fill="#BDBDBD"/>
<path id="Vector_8" d="M52.5064 44.7699C57.3133 44.7699 61.2101 40.8731 61.2101 36.0662C61.2101 31.2593 57.3133 27.3625 52.5064 27.3625C47.6995 27.3625 43.8027 31.2593 43.8027 36.0662C43.8027 40.8731 47.6995 44.7699 52.5064 44.7699Z" fill="#3E2723"/>
<path id="Vector_9" d="M52.5067 39.5364C54.4232 39.5364 55.9768 37.9828 55.9768 36.0663C55.9768 34.1498 54.4232 32.5962 52.5067 32.5962C50.5902 32.5962 49.0366 34.1498 49.0366 36.0663C49.0366 37.9828 50.5902 39.5364 52.5067 39.5364Z" fill="#BDBDBD"/>
<path id="Vector_10" d="M7.11078 22.5841L6.48503 24.12C5.97305 25.3715 5.46107 25.6559 3.69758 25.6559H1.82031L1.93409 20.8774H5.85927C6.76946 20.8206 7.4521 21.6739 7.11078 22.5841Z" fill="#FFF9C4"/>
<path id="Vector_11" d="M64.7371 25.9973H62.5186V19.7397H64.1683L64.7371 25.9973Z" fill="#F44336"/>
<path id="Vector_12" opacity="0.2" d="M42.1531 4.20951C42.2669 4.20951 42.4375 4.32329 42.4375 4.49395V15.6438C42.4375 15.7575 42.3238 15.9282 42.1531 15.9282H23.2098L32.9943 4.20951H42.1531ZM42.1531 3.07178H32.9375C32.5961 3.07178 32.3117 3.18555 32.0842 3.46999L22.1859 15.2455C21.617 15.9282 22.0721 17.0659 23.0392 17.0659H42.1531C42.9495 17.0659 43.5753 16.4402 43.5753 15.6438V4.49395C43.5753 3.69753 42.9495 3.07178 42.1531 3.07178Z" fill="#424242"/>
<path id="Vector_13" opacity="0.2" d="M57.7968 4.20951C57.9674 4.20951 58.1381 4.38017 58.1381 4.55083V4.66461L59.2758 15.5869C59.2758 15.7575 59.1052 15.8713 58.9345 15.8713H48.126C47.9554 15.8713 47.7847 15.7006 47.7847 15.53V4.55083C47.7847 4.38017 47.9554 4.20951 48.126 4.20951H57.7968ZM57.7968 3.07178H48.126C47.3296 3.07178 46.647 3.75442 46.647 4.55083V15.5869C46.647 16.3833 47.3296 17.0659 48.126 17.0659H58.9914C59.7878 17.0659 60.4705 16.3833 60.4705 15.5869L59.2758 4.55083C59.3327 3.69753 58.6501 3.07178 57.7968 3.07178Z" fill="#424242"/>
<path id="Vector_14" d="M27.2489 19.7397C26.6801 19.7397 25.6561 18.7726 24.8597 17.9762C24.177 17.2367 24.1202 16.0421 24.7459 15.2457C25.5423 14.3355 26.6232 13.4822 27.192 13.4822C28.1591 13.4822 28.9555 14.2786 28.9555 15.2457V18.0331C28.9555 18.9433 28.216 19.7397 27.2489 19.7397Z" fill="#546E7A"/>
<path id="Vector_15" opacity="0.2" d="M59.6742 1.19462C60.6413 1.19462 61.4377 1.99103 61.4377 2.95811V3.07188L62.6892 16.554C62.7461 17.0091 63.0874 17.4074 63.5425 17.578C63.6563 17.6349 63.7701 17.6349 63.8839 17.6349C64.2252 17.6349 64.5665 17.4642 64.794 17.1798C64.8509 17.1229 64.9647 17.0091 65.1922 17.0091H66.6713C66.8988 17.0091 67.1264 17.2367 67.1264 17.4642V26.7937C67.1264 27.0212 66.8988 27.2488 66.6713 27.2488H65.1922H65.1354C65.0785 27.2488 65.0216 27.2488 65.0216 27.2488C64.7372 27.2488 64.4527 27.3625 64.2252 27.5901C63.9976 27.8176 63.827 28.159 63.8839 28.5572L64.2252 32.3686C64.2821 32.8237 64.5665 33.165 64.9647 33.3356C65.1354 33.3925 65.3629 33.6201 65.3629 33.8476V36.2938C65.3629 36.4075 65.306 36.5213 65.2491 36.6351H61.1533C60.5844 36.6351 60.1293 37.0333 60.0155 37.6022C59.3329 41.1291 56.2041 43.689 52.6203 43.689C49.0933 43.689 46.0214 41.186 45.225 37.7728C45.1112 37.2608 44.6561 36.8626 44.0872 36.8626H23.096C22.5272 36.8626 22.0721 37.2608 21.9583 37.7728C21.2188 41.186 18.09 43.689 14.563 43.689C11.036 43.689 7.96415 41.186 7.16773 37.7728C7.05396 37.2608 6.59887 36.8626 6.03 36.8626H5.29047C4.77849 36.8626 4.38028 36.8057 3.98207 36.692C3.8683 36.6351 3.75453 36.6351 3.64075 36.6351H1.3084C1.25151 36.5213 1.19462 36.4075 1.19462 36.2938V33.8476C1.19462 33.5632 1.42217 33.2788 1.76349 33.2788C2.38924 33.2788 2.84434 32.7668 2.90123 32.141L3.07189 20.5361C3.18566 19.6259 3.8683 18.9433 4.77849 18.7726C6.59887 18.5451 9.15877 18.2038 11.2636 17.9193C15.4163 17.3505 15.4163 17.3505 15.7576 16.9523C15.9283 16.7247 17.2367 15.3025 18.7157 13.6528C21.5032 10.5809 25.2577 6.37132 27.4763 3.69764C28.7847 2.10481 29.8087 1.19462 31.174 1.19462H59.6742ZM59.6742 0.0568848H31.174C29.1829 0.0568848 27.8745 1.47905 26.623 2.95811C23.1529 7.11084 15.4732 15.4732 14.9043 16.2127C14.8474 16.2696 8.41924 17.1229 4.7216 17.6349C3.24255 17.8056 2.10481 19.0002 1.99104 20.4792L1.7066 32.141C0.796415 32.1979 0 32.9374 0 33.9045V36.3506C0 36.9764 0.341321 37.5453 0.853302 37.8297H3.69764C4.15273 37.9435 4.7216 38.0573 5.29047 38.0573H6.03C6.8833 41.9256 10.3534 44.8837 14.563 44.8837C18.7157 44.8837 22.1858 41.9824 23.096 38.0573H43.9735C44.8268 41.9256 48.2969 44.8837 52.5065 44.8837C56.7161 44.8837 60.2431 41.8687 61.0395 37.8866H65.5336C66.0455 37.6022 66.3869 37.0333 66.3869 36.4075V33.9614C66.3869 33.2219 65.9318 32.5961 65.2491 32.3117L64.9078 28.5003H65.0785H66.5575C67.4677 28.5003 68.2072 27.7607 68.2072 26.8506V17.4642C68.2072 16.554 67.4677 15.8145 66.5575 15.8145H65.0785C64.5665 15.8145 64.1114 16.0421 63.7701 16.4403L62.5186 2.95811C62.6323 1.36528 61.3239 0.0568848 59.6742 0.0568848Z" fill="#424242"/>
</g>
<defs>
<linearGradient id="paint0_linear_290_1094" x1="33.5813" y1="0.311683" x2="33.5813" y2="38.0287" gradientUnits="userSpaceOnUse">
<stop stop-color="#57CAFF"/>
<stop offset="0.2032" stop-color="#53C4FB"/>
<stop offset="0.4615" stop-color="#46B5F1"/>
<stop offset="0.7481" stop-color="#329BDF"/>
<stop offset="1" stop-color="#1C7ECC"/>
</linearGradient>
</defs>
</svg>
