<svg width="99" height="79" viewBox="0 0 99 79" fill="none" xmlns="http://www.w3.org/2000/svg">
<g id="&#240;&#159;&#166;&#134; emoji &#34;taxi&#34;">
<path id="Vector" d="M52.396 24.0794C50.2073 25.0092 47.5896 24.0074 46.6316 21.7524L45.561 19.2322C44.6312 17.0435 45.633 14.4258 47.8879 13.4678C50.0766 12.5381 52.6943 13.5399 53.6523 15.7948L54.7229 18.3151C55.6146 20.5982 54.5846 23.1496 52.396 24.0794Z" fill="#FFEB3B"/>
<path id="Vector_2" opacity="0.2" d="M48.4514 14.7943C49.9769 14.1463 51.6778 14.8329 52.3258 16.3583L53.3965 18.8786C54.0445 20.404 53.3579 22.1049 51.8325 22.7529C50.307 23.401 48.6061 22.7143 47.9581 21.1889L46.8874 18.6687C46.2394 17.1433 46.926 15.4423 48.4514 14.7943ZM47.8879 13.4678C45.6993 14.3976 44.603 16.9772 45.561 19.2322L46.6316 21.7524C47.5614 23.9411 50.141 25.0373 52.396 24.0794C54.5846 23.1496 55.6809 20.57 54.7229 18.3151L53.6523 15.7948C52.628 13.568 50.0766 12.5381 47.8879 13.4678Z" fill="#424242"/>
<path id="Vector_3" d="M89.17 22.5495L94.9741 36.2118C95.763 38.0689 95.7378 40.0368 93.8145 40.8539L23.0669 71.1439C20.7456 72.1301 16.5509 73.1292 14.8339 68.5347C14.8339 68.5347 12.459 62.5757 11.8873 60.8613C10.2466 56.0779 12.2996 53.1702 18.8971 49.3496C27.3053 44.4466 27.0405 41.4275 28.8482 38.3108C32.7586 31.4823 34.656 26.9182 50.2417 20.2971C61.7155 15.4228 72.0378 15.5785 80.3883 19.9385C80.7944 20.1574 82.8188 20.3152 86.0269 20.1267C87.1245 20.1302 88.2966 20.4935 89.17 22.5495Z" fill="url(#paint0_linear_290_1110)"/>
<path id="Vector_4" d="M20.2119 58.3426C20.2249 60.2161 19.8617 61.3882 16.7445 62.7124L13.0968 64.2621C12.5996 62.9075 12.0361 61.581 11.8207 60.8896C11.5771 60.1319 11.3616 59.4405 11.307 58.7591L16.6791 56.4769C20.4595 54.8709 20.2119 58.3426 20.2119 58.3426Z" fill="#FFF9C4"/>
<path id="Vector_5" d="M89.1696 22.5497L91.7336 28.585C91.6573 28.774 91.4202 28.953 91.0886 29.0939L90.2264 29.4601C89.6958 29.6855 89.2896 29.4666 88.6962 28.6226L86.4006 24.5089C85.6663 23.3333 86.3295 23.0516 86.8601 22.8262L88.1865 22.2627C88.5181 22.1218 88.8116 22.0754 89.0006 22.1517L89.1696 22.5497Z" fill="#E53935"/>
<path id="Vector_6" d="M50.2839 24.8203C40.3355 29.0465 32.3959 38.3697 31.808 44.7261C31.7582 45.5302 32.5987 46.0344 33.3945 45.6963L55.4135 36.3421C56.0104 36.0886 56.3437 35.3989 56.1183 34.8683L52.033 25.2516C51.7131 24.6829 50.9471 24.5385 50.2839 24.8203Z" fill="#546E7A"/>
<path id="Vector_7" d="M56.0537 22.3689C65.1399 18.5089 72.4543 21.3517 77.1722 25.4542C77.7856 25.9766 77.6313 26.9033 76.8354 27.2414L60.8518 34.0317C60.3212 34.2571 59.6597 33.99 59.4343 33.4595L56.166 25.7661C55.2925 23.7101 55.0589 22.7915 56.0537 22.3689Z" fill="#546E7A"/>
<path id="Vector_8" opacity="0.2" d="M51.0864 22.2869C61.5653 17.8352 71.3588 17.6676 79.3976 21.8468C79.7092 22.0276 80.6161 22.5035 86.0857 22.2938C86.4073 22.3137 86.7008 22.2674 87.1797 23.3948L92.9838 37.0572C93.6318 38.5826 93.1676 38.7798 92.9686 38.8644L22.221 69.1544C21.2925 69.5488 19.5781 70.1206 18.3497 69.6247C17.6882 69.3576 17.1793 68.7126 16.8512 67.7559C16.823 67.6896 14.4762 61.7969 13.9326 60.1488C12.8356 57.0135 13.4758 55.0191 20.0071 51.2267C27.2778 46.9635 28.7356 43.7606 29.8982 41.1528C30.1934 40.5576 30.4223 39.9906 30.7457 39.4618C30.9646 39.0556 31.1835 38.6495 31.4688 38.2151C34.7806 32.189 37.0924 28.2318 51.0864 22.2869ZM50.2411 20.2972C34.6554 26.9184 32.758 31.4824 28.7149 38.3673C26.9454 41.3894 27.2384 44.4749 18.7639 49.406C12.2326 53.1984 10.1797 56.1062 11.8203 60.8896C12.4302 62.5095 14.767 68.563 14.767 68.563C16.5503 73.1293 20.6787 72.1584 23 71.1722L93.7476 40.8822C95.6709 40.0651 95.7242 38.1635 94.9072 36.2401L89.1031 22.5778C88.2297 20.5218 87.0575 20.1585 85.8937 20.1832C82.7236 20.2772 80.633 20.1476 80.255 19.995C72.0372 15.5786 61.7148 15.4229 50.2411 20.2972Z" fill="#424242"/>
<g id="Group">
<path id="Vector_9" d="M41.6724 46.0156L45.6517 44.3251L47.3422 48.3044L43.3629 49.995L41.6724 46.0156Z" fill="#6D4C41"/>
<path id="Vector_10" d="M49.6978 42.6064L53.6771 40.9159L55.3676 44.8953L51.3883 46.5858L49.6978 42.6064Z" fill="#6D4C41"/>
<path id="Vector_11" d="M57.6562 39.2253L61.6356 37.5348L63.3261 41.5142L59.3468 43.2047L57.6562 39.2253Z" fill="#6D4C41"/>
<path id="Vector_12" d="M39.3457 51.78L43.325 50.0895L45.0155 54.0689L41.0362 55.7594L39.3457 51.78Z" fill="#6D4C41"/>
<path id="Vector_13" d="M47.3706 48.3708L51.3499 46.6803L53.0404 50.6597L49.0611 52.3502L47.3706 48.3708Z" fill="#6D4C41"/>
<path id="Vector_14" d="M55.3955 44.9617L59.3748 43.2712L61.0653 47.2505L57.086 48.941L55.3955 44.9617Z" fill="#6D4C41"/>
<path id="Vector_15" d="M63.4204 41.5525L67.3997 39.862L69.0903 43.8413L65.1109 45.5318L63.4204 41.5525Z" fill="#6D4C41"/>
</g>
<path id="Vector_16" opacity="0.2" d="M50.7147 26.203L54.5465 35.2228L33.3234 44.2388C33.8145 41.5248 35.6985 38.2192 38.5755 35.0397C41.9748 31.2468 46.2992 28.157 50.7147 26.203ZM50.2175 24.8484C40.2691 29.0746 32.3295 38.3977 31.7416 44.7542C31.6918 45.5583 32.5323 46.0625 33.3281 45.7244L55.3471 36.3702C55.944 36.1166 56.2773 35.427 56.0519 34.8964L51.9665 25.2797C51.713 24.6828 50.947 24.5384 50.2175 24.8484Z" fill="#424242"/>
<path id="Vector_17" opacity="0.2" d="M56.8825 23.5827C65.8261 19.9398 72.391 23.4142 75.8358 26.1785L60.648 32.6307L57.4924 25.2026C57.3797 24.9373 57.0134 24.0751 56.8825 23.5827ZM56.0538 22.3689C54.9926 22.8197 55.2925 23.7101 56.166 25.7661L59.4625 33.5258C59.6879 34.0564 60.3494 34.3234 60.8799 34.098L76.9299 27.2796C77.6595 26.9697 77.7856 25.9766 77.2667 25.4924C72.4825 21.4181 65.2062 18.4808 56.0538 22.3689Z" fill="#424242"/>
<path id="Vector_18" d="M37.5339 71.1049C41.1967 69.5488 42.9046 65.318 41.3486 61.6551C39.7925 57.9923 35.5617 56.2844 31.8988 57.8404C28.2359 59.3965 26.528 63.6273 28.0841 67.2902C29.6402 70.9531 33.871 72.661 37.5339 71.1049Z" fill="#4E342E"/>
<path id="Vector_19" opacity="0.2" d="M32.1806 58.5037C35.4967 57.0949 39.2766 58.6208 40.6853 61.9369C42.0941 65.253 40.5682 69.0329 37.2521 70.4417C33.936 71.8504 30.1561 70.3245 28.7473 67.0084C27.3386 63.6923 28.9308 59.8842 32.1806 58.5037ZM31.8988 57.8404C28.2511 59.3901 26.5345 63.6425 28.0841 67.2902C29.6337 70.9379 33.8861 72.6545 37.5339 71.1049C41.1816 69.5553 42.8982 65.3029 41.3486 61.6551C39.7989 58.0074 35.6129 56.2626 31.8988 57.8404Z" fill="#EEEEEE"/>
<path id="Vector_20" d="M36.3219 68.2531C38.4098 67.3661 39.3833 64.9546 38.4963 62.8667C37.6093 60.7789 35.1978 59.8054 33.11 60.6924C31.0221 61.5793 30.0486 63.9909 30.9356 66.0787C31.8225 68.1665 34.2341 69.14 36.3219 68.2531Z" fill="#BDBDBD"/>
<path id="Vector_21" d="M84.6891 51.0724C88.352 49.5163 90.0599 45.2856 88.5038 41.6227C86.9478 37.9598 82.717 36.2519 79.0541 37.808C75.3912 39.364 73.6833 43.5948 75.2394 47.2577C76.7955 50.9206 81.0263 52.6285 84.6891 51.0724Z" fill="#4E342E"/>
<path id="Vector_22" opacity="0.2" d="M79.3358 38.4712C82.652 37.0624 86.4319 38.5883 87.8406 41.9044C89.2494 45.2205 87.7235 49.0004 84.4074 50.4092C81.0913 51.8179 77.3114 50.2921 75.9026 46.976C74.4939 43.6598 76.0861 39.8518 79.3358 38.4712ZM79.0541 37.808C75.4064 39.3576 73.6898 43.61 75.2394 47.2577C76.789 50.9054 81.0414 52.622 84.6891 51.0724C88.3368 49.5228 90.0535 45.2704 88.5038 41.6227C86.9542 37.975 82.7681 36.2302 79.0541 37.808Z" fill="#EEEEEE"/>
<path id="Vector_23" d="M83.4772 48.2206C85.565 47.3337 86.5385 44.9221 85.6516 42.8343C84.7646 40.7464 82.3531 39.7729 80.2652 40.6599C78.1774 41.5468 77.2039 43.9584 78.0908 46.0462C78.9778 48.1341 81.3894 49.1076 83.4772 48.2206Z" fill="#BDBDBD"/>
</g>
<defs>
<linearGradient id="paint0_linear_290_1110" x1="43.1139" y1="24.6303" x2="56.65" y2="56.4934" gradientUnits="userSpaceOnUse">
<stop stop-color="#FFEE58"/>
<stop offset="0.3491" stop-color="#FFE950"/>
<stop offset="0.8873" stop-color="#FDDB3A"/>
<stop offset="1" stop-color="#FDD835"/>
</linearGradient>
</defs>
</svg>
