<svg width="65" height="60" viewBox="0 0 65 60" fill="none" xmlns="http://www.w3.org/2000/svg">
<g id="&#240;&#159;&#166;&#134; emoji &#34;oncoming taxi&#34;">
<path id="Vector" d="M31.8662 15.3901L23.6256 18.1368C21.318 18.9059 18.8012 17.6475 18.0321 15.3399C17.263 13.0324 18.5214 10.5156 20.829 9.74646L29.0696 6.99973C31.3771 6.23059 33.8939 7.48903 34.6631 9.79658C35.4322 12.1041 34.1738 14.6209 31.8662 15.3901Z" fill="#FDD835"/>
<path id="Vector_2" d="M14.1303 34.8467L13.727 33.5675C12.9606 31.2682 7.66639 34.137 7.66639 34.137C6.7988 34.708 6.3262 35.6046 6.79184 37.0016C7.32954 38.6148 13.4054 36.4973 13.4054 36.4973C14.1704 36.2423 14.4961 35.5008 14.1303 34.8467Z" fill="#424242"/>
<path id="Vector_3" opacity="0.2" d="M10.38 33.9207C11.4319 33.5701 12.7263 33.3373 12.8899 33.8279L13.2931 35.1071C13.3125 35.1653 13.3361 35.2221 13.3666 35.272C13.4248 35.3774 13.404 35.4397 13.3929 35.4619C13.361 35.5464 13.2612 35.6213 13.1199 35.6684L12.991 35.7114C9.9891 36.7119 8.04744 36.8602 7.60257 36.6481C7.28799 35.635 7.67882 35.186 8.11954 34.8867C8.30526 34.7924 9.28649 34.2852 10.38 33.9207ZM10.1028 33.0892C8.80559 33.5216 7.66636 34.1369 7.66636 34.1369C6.79878 34.7079 6.32617 35.6045 6.79181 37.0015C7.27962 38.4651 12.3493 36.8492 13.264 36.5443L13.4054 36.4972C14.1704 36.2422 14.4947 35.4966 14.1247 34.8438L13.7214 33.5646C13.3167 32.3367 11.6037 32.5889 10.1028 33.0892Z" fill="#EEEEEE"/>
<path id="Vector_4" d="M49.5043 23.0558L49.0594 21.7905C48.2945 19.4954 54.2511 18.6141 54.2511 18.6141C55.2878 18.5503 56.2038 18.9841 56.6695 20.3811C57.2072 21.9943 51.0759 23.9456 51.0759 23.9456C50.3095 24.1964 49.6041 23.7987 49.5043 23.0558Z" fill="#424242"/>
<path id="Vector_5" opacity="0.2" d="M51.6723 19.2335L51.9495 20.065C53.0346 19.7033 54.1323 19.5176 54.3429 19.4844C54.8751 19.4594 55.453 19.5856 55.8134 20.5834C55.5847 21.02 53.9424 22.0663 50.9405 23.0669L50.7991 23.114C50.6661 23.1584 50.5455 23.157 50.4693 23.1085C50.4512 23.096 50.393 23.0599 50.3764 22.9408C50.3695 22.8784 50.3556 22.823 50.3362 22.7648L49.8969 21.516C49.7278 21.0088 50.8989 20.4198 51.955 20.0678L51.6723 19.2335ZM51.6723 19.2335C50.1713 19.7338 48.6496 20.5597 49.0598 21.7904L49.5047 23.0558C49.6044 23.7986 50.3071 24.2019 51.0721 23.9469L51.2135 23.8998C52.1282 23.5949 57.1535 21.846 56.6657 20.3825C56.2 18.9855 55.284 18.5517 54.2473 18.6154C54.2501 18.6099 52.9695 18.8011 51.6723 19.2335Z" fill="#EEEEEE"/>
<path id="Vector_6" d="M22.6548 56.7203L20.4761 57.4465C19.2745 57.847 17.9663 57.1928 17.5658 55.9912L16.4917 52.769C16.0912 51.5674 16.7454 50.2591 17.947 49.8586L20.1256 49.1324C21.3272 48.7319 22.6355 49.3861 23.036 50.5877L24.11 53.8099C24.5105 55.0115 23.8522 56.3212 22.6548 56.7203Z" fill="#4E342E"/>
<path id="Vector_7" d="M58.0412 44.9255L55.7545 45.6877C54.5529 46.0882 53.2446 45.434 52.8441 44.2325L51.77 41.0102C51.3695 39.8086 52.0237 38.5003 53.2253 38.0998L55.5121 37.3376C56.7136 36.9371 58.0219 37.5913 58.4224 38.7929L59.4965 42.0151C59.897 43.2167 59.2428 44.525 58.0412 44.9255Z" fill="#4E342E"/>
<path id="Vector_8" opacity="0.2" d="M29.3605 7.87296C31.1608 7.27289 33.1121 8.2486 33.7122 10.0489L33.7316 10.1071C34.3317 11.9074 33.356 13.8588 31.5557 14.4588L23.315 17.2056C21.5147 17.8056 19.5634 16.8299 18.9633 15.0296L18.9439 14.9714C18.3438 13.1711 19.3195 11.2198 21.1198 10.6197L29.3605 7.87296ZM29.0501 6.94162L20.8094 9.68836C18.5019 10.4575 17.2434 12.9743 18.0126 15.2818L18.032 15.34C18.8011 17.6476 21.3179 18.906 23.6254 18.1369L31.8661 15.3902C34.1736 14.621 35.4321 12.1042 34.6629 9.79668L34.6435 9.73847C33.8744 7.43093 31.3576 6.17248 29.0501 6.94162Z" fill="#424242"/>
<path id="Vector_9" d="M51.5626 23.728L44.6914 12.2193C42.9771 9.90343 38.0876 8.98311 26.4459 12.8635C14.8043 16.7438 11.4905 20.2044 11.4808 23.4044L12.8373 36.608C11.2865 38.095 11.4902 40.0644 12.5781 43.3282L14.8883 50.2592C15.8459 53.1322 19.0099 54.1564 21.438 53.3471L54.6334 42.2826C57.0616 41.4732 59.0823 38.7209 58.1232 35.8437L55.8144 28.9169C54.7404 25.6808 53.6858 23.9997 51.5626 23.728Z" fill="url(#paint0_radial_290_1043)"/>
<path id="Vector_10" opacity="0.2" d="M26.8617 14.1108C31.086 12.7028 41.1366 9.78699 43.5965 12.9538L50.433 24.4001L50.7601 24.9517L51.3962 25.0307C52.5784 25.1818 53.4307 25.9094 54.5713 29.3313L56.8815 36.2622C57.5785 38.3536 56.0693 40.4227 54.2232 41.038L21.0236 52.1039C20.1006 52.4116 19.0418 52.3672 18.1216 51.9764C17.4439 51.6895 16.5444 51.0838 16.1314 49.8448L13.8212 42.9139C12.6613 39.4338 12.883 38.3806 13.7451 37.5573L14.2108 37.1111L14.1456 36.4722L12.796 23.3449C12.8723 20.3028 17.6024 17.197 26.8617 14.1108ZM26.4459 12.8635C14.8043 16.7438 11.4905 20.2044 11.4808 23.4044L12.8373 36.608C11.2865 38.095 11.4902 40.0644 12.5781 43.3282L14.8883 50.2592C15.8459 53.1322 19.0099 54.1564 21.438 53.3471L54.6334 42.2826C57.0616 41.4732 59.0823 38.7209 58.1232 35.8437L55.8144 28.9169C54.7363 25.6822 53.6816 24.0011 51.5584 23.7294L44.6873 12.2207C42.9771 9.90343 38.0876 8.98311 26.4459 12.8635Z" fill="#424242"/>
<path id="Vector_11" d="M35.6726 40.5181C27.0328 43.3979 25.604 42.2157 25.3892 41.5712L25.0607 40.5858C24.6145 39.2471 25.4516 37.7531 26.9276 37.2611L40.4901 32.7405C41.9661 32.2485 43.5308 32.9373 43.9784 34.2803L44.3069 35.2657C44.5217 35.9101 44.1087 37.7062 35.6726 40.5181Z" fill="#37474F"/>
<path id="Vector_12" d="M40.6304 33.1605C41.8735 32.7461 43.1943 33.313 43.5643 34.4231L43.8927 35.4085C44.278 36.5643 40.0177 38.6126 35.5356 40.1066C30.9732 41.6227 26.1849 42.572 25.8052 41.4327L25.4767 40.4473C25.1067 39.3372 25.8232 38.0913 27.0664 37.6769L40.629 33.1563M40.3532 32.3289L26.7906 36.8496C25.086 37.4177 24.1227 39.157 24.6466 40.7287L24.975 41.7141C25.4212 43.0528 27.489 42.9087 29.2408 42.6344C31.0494 42.3503 33.3847 41.7475 35.8128 40.9381C38.2118 40.1385 40.3933 39.2405 41.9524 38.402C43.4783 37.5885 45.1733 36.4784 44.7243 35.1313L44.3958 34.1459C43.872 32.5743 42.0579 31.7607 40.3532 32.3289Z" fill="#808080"/>
<path id="Vector_13" d="M27.0024 39.4812L41.9703 34.4922" stroke="#BDBDBD" stroke-width="0.876524" stroke-miterlimit="10" stroke-linecap="round" stroke-linejoin="round"/>
<path id="Vector_14" d="M28.8042 40.7285L41.6932 36.4324" stroke="#BDBDBD" stroke-width="0.876524" stroke-miterlimit="10" stroke-linecap="round" stroke-linejoin="round"/>
<g id="Group">
<path id="Vector_15" d="M20.9023 11.4775L22.2079 11.0424L22.643 12.3479L21.3375 12.7831L20.9023 11.4775Z" fill="#6D4C41"/>
<path id="Vector_16" d="M23.5181 10.6057L24.8236 10.1706L25.2588 11.4761L23.9532 11.9112L23.5181 10.6057Z" fill="#6D4C41"/>
<path id="Vector_17" d="M26.1289 9.7356L27.4344 9.30044L27.8696 10.606L26.5641 11.0411L26.1289 9.7356Z" fill="#6D4C41"/>
<path id="Vector_18" d="M28.7441 8.86377L30.0497 8.42862L30.4848 9.73415L29.1793 10.1693L28.7441 8.86377Z" fill="#6D4C41"/>
<path id="Vector_19" d="M22.6431 12.3479L23.9486 11.9127L24.3838 13.2183L23.0782 13.6534L22.6431 12.3479Z" fill="#6D4C41"/>
<path id="Vector_20" d="M25.2588 11.4761L26.5643 11.0409L26.9995 12.3465L25.6939 12.7816L25.2588 11.4761Z" fill="#6D4C41"/>
<path id="Vector_21" d="M27.8696 10.6057L29.1752 10.1706L29.6103 11.4761L28.3048 11.9112L27.8696 10.6057Z" fill="#6D4C41"/>
</g>
<path id="Vector_22" d="M20.2795 43.2189C22.1441 42.5974 23.1518 40.5821 22.5303 38.7175C21.9088 36.853 19.8935 35.8453 18.0289 36.4667C16.1644 37.0882 15.1566 39.1036 15.7781 40.9681C16.3996 42.8327 18.415 43.8404 20.2795 43.2189Z" fill="#FFEE58"/>
<path id="Vector_23" opacity="0.2" d="M20.4178 43.6348C22.512 42.9368 23.6438 40.6732 22.9458 38.579C22.2477 36.4848 19.9842 35.353 17.89 36.0511C15.7958 36.7491 14.664 39.0126 15.362 41.1068C16.0601 43.201 18.3236 44.3328 20.4178 43.6348Z" stroke="#424242" stroke-width="0.876524" stroke-miterlimit="10"/>
<path id="Vector_24" d="M49.3835 33.518C51.2481 32.8965 52.2558 30.8812 51.6343 29.0166C51.0128 27.152 48.9975 26.1443 47.1329 26.7658C45.2684 27.3873 44.2607 29.4026 44.8821 31.2672C45.5036 33.1318 47.519 34.1395 49.3835 33.518Z" fill="#FFEE58"/>
<path id="Vector_25" opacity="0.2" d="M49.5223 33.9339C51.6165 33.2358 52.7483 30.9723 52.0502 28.8781C51.3522 26.7839 49.0887 25.6521 46.9945 26.3501C44.9003 27.0482 43.7685 29.3117 44.4665 31.4059C45.1645 33.5001 47.4281 34.6319 49.5223 33.9339Z" stroke="#424242" stroke-width="0.876524" stroke-miterlimit="10"/>
<path id="Vector_26" opacity="0.2" d="M20.4028 49.964C21.147 49.7159 21.9564 50.1206 22.2045 50.8649L23.2785 54.0871C23.5266 54.8313 23.1219 55.6407 22.3776 55.8888L20.199 56.6149C19.4547 56.863 18.6454 56.4583 18.3973 55.7141L17.3233 52.4918C17.0752 51.7476 17.4799 50.9382 18.2241 50.6902L20.4028 49.964ZM20.1256 49.1324L17.947 49.8586C16.7454 50.2591 16.0912 51.5674 16.4917 52.769L17.5658 55.9912C17.9663 57.1928 19.2745 57.847 20.4761 57.4465L22.6548 56.7203C23.8564 56.3198 24.5105 55.0115 24.11 53.8099L23.036 50.5877C22.6369 49.3903 21.3231 48.7333 20.1256 49.1324Z" fill="#EEEEEE"/>
<path id="Vector_27" opacity="0.2" d="M55.7892 38.1692C56.5335 37.9211 57.3428 38.3258 57.5909 39.07L58.6649 42.2923C58.913 43.0365 58.5083 43.8459 57.764 44.0939L55.4773 44.8562C54.733 45.1042 53.9237 44.6995 53.6756 43.9553L52.6016 40.733C52.3535 39.9888 52.7582 39.1794 53.5025 38.9314L55.7892 38.1692ZM55.5121 37.3376L53.2253 38.0998C52.0237 38.5003 51.3695 39.8086 51.77 41.0102L52.8441 44.2325C53.2446 45.434 54.5529 46.0882 55.7545 45.6877L58.0412 44.9255C59.2428 44.525 59.897 43.2167 59.4965 42.0151L58.4224 38.7929C58.0233 37.5954 56.7136 36.9371 55.5121 37.3376Z" fill="#EEEEEE"/>
<path id="Vector_28" d="M45.1914 24.1563C46.0007 23.9651 46.4041 23.0822 45.9966 22.4004L41.6353 15.109C40.8509 13.8783 37.2434 12.965 27.7305 16.1358C18.2175 19.3066 15.8601 22.3791 15.9529 23.6694L16.8397 32.1234C16.9229 32.9134 17.7752 33.3777 18.5375 33.0451C20.4597 32.2011 24.429 30.5963 31.7175 28.1669C39.006 25.7375 43.1472 24.6344 45.1914 24.1563Z" fill="#546E7A"/>
<path id="Vector_29" opacity="0.2" d="M28.0093 16.9713C37.2852 13.8795 40.4367 14.9079 40.8802 15.5731L45.2332 22.8534C45.2734 22.9185 45.2804 22.9947 45.2499 23.0696C45.2332 23.1167 45.1778 23.2275 45.024 23.2788L44.9865 23.2913C42.7538 23.8137 38.5864 24.9349 31.4351 27.3185C24.2838 29.7022 20.2771 31.3056 18.1774 32.2272L18.14 32.2397C17.9862 32.2909 17.8753 32.2355 17.8337 32.2078C17.763 32.162 17.7242 32.1011 17.7173 32.0248L16.8332 23.593C16.8111 22.9721 18.6169 20.1019 28.0093 16.9713ZM27.7293 16.1314C18.2206 19.3008 15.8589 22.3747 15.9518 23.665L16.8386 32.1191C16.9176 32.8688 17.6937 33.3262 18.4213 33.0837C18.4587 33.0712 18.4962 33.0587 18.5363 33.0407C20.4586 32.1967 24.4279 30.5919 31.7164 28.1625C39.0049 25.7332 43.1433 24.6356 45.1875 24.1575C45.2263 24.1492 45.2679 24.1353 45.3053 24.1228C46.0329 23.8803 46.3794 23.0488 45.9927 22.4016L41.6356 15.1088C40.8498 13.874 37.2423 12.9606 27.7293 16.1314Z" fill="#424242"/>
<path id="Vector_30" d="M58.74 40.632C45.1303 45.9398 31.3432 50.5353 17.2665 54.4558C16.1356 54.7634 14.9659 54.0954 14.6721 52.9784C14.5903 52.6776 14.5529 52.5238 14.4712 52.2231C14.1774 51.106 14.8454 49.9502 15.9652 49.6508C29.8548 45.7788 43.4631 41.243 56.8982 36.0072C57.9709 35.5804 59.2016 36.0988 59.6367 37.1687C59.7517 37.4583 59.8141 37.6039 59.9291 37.8935C60.3643 38.9634 59.8293 40.1997 58.74 40.632Z" fill="#F9A825"/>
<path id="Vector_31" d="M20.7502 47.2244L18.7212 47.9006C18.1766 48.0822 17.5875 47.7842 17.406 47.2395C17.2245 46.6949 17.5211 46.1017 18.0616 45.9216L20.0905 45.2453C20.6352 45.0637 21.2242 45.3617 21.4058 45.9064C21.5873 46.451 21.2907 47.0442 20.7502 47.2244Z" fill="#FBC02D"/>
<path id="Vector_32" d="M53.6469 36.2596L51.618 36.9359C51.0733 37.1174 50.4801 36.8208 50.2986 36.2762C50.117 35.7315 50.4136 35.1383 50.9583 34.9568L52.9873 34.2805C53.5319 34.099 54.1251 34.3956 54.3066 34.9402C54.4882 35.4849 54.1916 36.078 53.6469 36.2596Z" fill="#FBC02D"/>
<path id="Vector_33" opacity="0.2" d="M57.4274 37.2076C57.8182 37.0773 58.2645 37.2797 58.4183 37.658L58.7107 38.3829C58.787 38.57 58.7828 38.7792 58.6996 38.9733C58.6137 39.1728 58.4529 39.3281 58.2617 39.4057C51.5081 42.0402 44.6104 44.5333 37.7626 46.8158C30.9148 49.0982 23.9007 51.2421 16.9254 53.1837C16.7134 53.2405 16.4958 53.2114 16.3073 53.1033C16.1244 52.9979 15.9955 52.833 15.9442 52.6376L15.7433 51.8823C15.6393 51.4873 15.8708 51.0591 16.2658 50.9274L16.3198 50.9094C23.2521 48.9775 30.2164 46.8503 37.0184 44.5831C43.8205 42.3158 50.6683 39.8393 57.3858 37.2215L57.4274 37.2076ZM57.0117 35.9603C56.9742 35.9727 56.9368 35.9852 56.8966 36.0032C50.1791 38.6211 43.4214 41.063 36.6027 43.3357C29.7881 45.6071 22.9126 47.7094 15.9678 49.6454C15.929 49.6538 15.8874 49.6676 15.85 49.6801C14.8064 50.0279 14.1897 51.1436 14.4738 52.2177C14.5555 52.5184 14.5929 52.6722 14.6747 52.973C14.9685 54.09 16.1382 54.758 17.2691 54.4504C24.3068 52.4881 31.271 50.3608 38.177 48.0589C45.083 45.7571 51.935 43.2792 58.7384 40.628C59.8278 40.1956 60.3627 38.9594 59.9276 37.8895C59.8126 37.5998 59.7502 37.4543 59.6352 37.1647C59.2166 36.1308 58.0594 35.611 57.0117 35.9603Z" fill="#424242"/>
</g>
<defs>
<radialGradient id="paint0_radial_290_1043" cx="0" cy="0" r="1" gradientUnits="userSpaceOnUse" gradientTransform="translate(32.2681 30.331) rotate(-18.434) scale(20.7162 20.7162)">
<stop stop-color="#FFEE58"/>
<stop offset="0.3491" stop-color="#FFE950"/>
<stop offset="0.8873" stop-color="#FDDB3A"/>
<stop offset="1" stop-color="#FDD835"/>
</radialGradient>
</defs>
</svg>
